<?xml version="1.0" encoding="UTF-8"?>
<svg preserveAspectRatio="xMidYMid" viewBox="0 0 60 40" xmlns="http://www.w3.org/2000/svg">
<defs>
<style>.cls-1 {
        fill: #000;
        fill-rule: evenodd;
      }</style>
</defs>
<path class="cls-1" d="m58.738 40l-0.044 0.067-0.102-0.067h-0.592-56-0.592l-0.102 0.067-0.044-0.067h-1.262v-2-36-2h1.262l0.044-0.067 0.102 0.067h0.592 56 0.592l0.102-0.067 0.044 0.067h1.262v2 36 2h-1.262zm-0.738-37.217l-9.403 6.184c3.284 2.562 5.403 6.546 5.403 11.033s-2.119 8.471-5.403 11.033l9.403 6.184v-34.434zm-29.82 17.217l-15.002-9.866c-3.127 2.166-5.178 5.775-5.178 9.866s2.051 7.7 5.178 9.866l15.002-9.866zm-13.037 10.967c1.486 0.659 3.127 1.033 4.857 1.033h20c1.73 0 3.371-0.374 4.857-1.033l-14.857-9.77-14.857 9.77zm14.857-12.164l14.857-9.77c-1.486-0.659-3.127-1.033-4.857-1.033h-20c-1.73 0-3.371 0.374-4.857 1.033l14.857 9.77zm1.82 1.197l15.002 9.866c3.127-2.166 5.178-5.775 5.178-9.866s-2.051-7.7-5.178-9.866l-15.002 9.866zm23.731 18l-8.76-5.761c-2.012 1.119-4.326 1.761-6.791 1.761h-20c-2.465 0-4.779-0.642-6.791-1.761l-8.76 5.761h51.102zm-53.551-0.783l9.403-6.184c-3.284-2.562-5.403-6.546-5.403-11.033s2.119-8.471 5.403-11.033l-9.403-6.184v34.434zm2.449-35.217l8.76 5.761c2.012-1.119 4.326-1.761 6.791-1.761h20c2.465 0 4.779 0.642 6.791 1.761l8.76-5.761h-51.102z"/>
</svg>
