<svg xmlns="http://www.w3.org/2000/svg" preserveAspectRatio="xMidYMid" width="60" height="40" viewBox="0 0 60 40"><defs><style>.cls-1 { fill: #000; fill-rule: evenodd; }</style></defs><path d="M58.738 40l-.044.067-.102-.067h-57.184l-.102.067-.044-.067h-1.262v-40h1.262l.044-.067.102.067h57.184l.102-.067.044.067h1.262v40h-1.262zm-3.187-2l-24.551-16.146v16.146h24.551zm-26.551 0v-16.146l-24.551 16.146h24.551zm-27-.783l26.18-17.217-26.18-17.217v34.434zm2.449-35.217l24.551 16.146v-16.146h-24.551zm26.551 0v16.146l24.551-16.146h-24.551zm27 .783l-26.18 17.217 26.18 17.217v-34.434z" class="cls-1"/></svg>