<svg xmlns="http://www.w3.org/2000/svg" preserveAspectRatio="xMidYMid" width="60" height="40" viewBox="0 0 60 40"><defs><style>.cls-1 { fill: #000; fill-rule: evenodd; }</style></defs><path d="M58 40h-58v-40h60v40h-2zm0-38h-56v36h56v-36zm-37.05 17h18.1c.502-5.053 4.765-9 9.95-9v2.069c-3.945.493-7 3.852-7 7.931 0 4.079 3.055 7.438 7 7.931v2.069c-5.185 0-9.448-3.947-9.95-9h-18.1c-.502 5.053-4.765 9-9.95 9v-2.069c3.945-.493 7-3.852 7-7.931 0-4.079-3.055-7.438-7-7.931v-2.069c5.185 0 9.448 3.947 9.95 9z" class="cls-1"/></svg>