<svg xmlns="http://www.w3.org/2000/svg" preserveAspectRatio="xMidYMid" width="60" height="40" viewBox="0 0 60 40"><defs><style>.cls-1 { fill: #000; fill-rule: evenodd; }</style></defs><path d="M58 40h-58v-40h60v40h-2zm0-38h-56v36h56v-36zm-33.071 10.414l-1.414-1.414 6.485-6.485 6.485 6.485-1.414 1.414-4.071-4.071v13.758c2.835.478 5 2.928 5 5.899 0 3.314-2.686 6-6 6s-6-2.686-6-6c0-2.971 2.165-5.421 5-5.899v-13.758l-4.071 4.071zm1.071 15.586c0 2.209 1.791 4 4 4s4-1.791 4-4-1.791-4-4-4-4 1.791-4 4z" class="cls-1"/></svg>