<svg xmlns="http://www.w3.org/2000/svg" preserveAspectRatio="xMidYMid" width="60" height="40" viewBox="0 0 60 40"><defs><style>.cls-1 { fill: #000; fill-rule: evenodd; }</style></defs><path d="M58 40h-58v-40h60v40h-2zm0-38h-56v36h56v-36zm-43.338 10.11l-.168-.11h2.349l1.701.27 11.456 7.533 11.456-7.533 1.701-.27h2.349l-.168.11c4.334.648 7.662 4.375 7.662 8.89 0 4.515-3.328 8.242-7.662 8.89l.168.11h-2.349l-1.701-.27-11.456-7.533-11.456 7.533-1.701.27h-2.349l.168-.11c-4.334-.648-7.662-4.375-7.662-8.89 0-4.515 3.328-8.242 7.662-8.89zm27.338 15.585v-.02c.638.191 1.3.325 2 .325 3.866 0 7-3.134 7-7s-3.134-7-7-7c-.7 0-1.362.134-2 .325v-.02l-10.18 6.695 10.18 6.695zm-26 .305c.7 0 1.362-.134 2-.325v.02l10.18-6.695-10.18-6.695v.02c-.638-.191-1.3-.325-2-.325-3.866 0-7 3.134-7 7s3.134 7 7 7z" class="cls-1"/></svg>