<svg xmlns="http://www.w3.org/2000/svg" preserveAspectRatio="xMidYMid" width="60" height="40" viewBox="0 0 60 32"><defs><style>.cls-1 {fill: #000;fill-rule: evenodd;}</style></defs><path d="M30.000,32.000 C13.431,32.000 -0.000,16.000 -0.000,16.000 C-0.000,16.000 13.431,0.000 30.000,0.000 C46.569,0.000 60.000,16.000 60.000,16.000 C60.000,16.000 46.569,32.000 30.000,32.000 ZM30.000,3.000 C15.641,3.000 4.000,16.000 4.000,16.000 C4.000,16.000 15.641,29.000 30.000,29.000 C44.359,29.000 56.000,16.000 56.000,16.000 C56.000,16.000 44.359,3.000 30.000,3.000 ZM33.000,27.000 C31.875,27.844 22.505,19.381 22.411,17.474 C22.371,16.662 28.262,13.473 28.793,12.973 C29.325,12.473 25.156,8.406 24.000,7.000 C22.844,5.594 29.594,4.188 31.000,5.000 C32.406,5.812 37.871,13.305 37.746,14.336 C37.621,15.368 30.732,19.170 30.138,19.545 C29.545,19.920 34.125,26.156 33.000,27.000 Z" class="cls-1"/></svg>